<svg viewBox="0 0 100 100" width="512" height="512" fill="none" xmlns="http://www.w3.org/2000/svg">
  <defs>
    <!-- Vibrant Teal gradient for fold and tail to give 3D shiny effect -->
    <linearGradient id="tealGrad" x1="0" y1="0" x2="1" y2="1">
      <stop offset="0%" stopColor="#00d2ff" />
      <stop offset="100%" stopColor="#0f766e" />
    </linearGradient>
    
    <!-- White document shadow -->
    <filter id="docShadow" x="-20%" y="-20%" width="140%" height="140%">
      <feDropShadow dx="0" dy="5" stdDeviation="5" flood-opacity="0.12" />
    </filter>

    <!-- Heavy shadow for the tail popping out -->
    <filter id="tailShadow" x="-20%" y="-20%" width="140%" height="140%">
      <feDropShadow dx="-2" dy="3" stdDeviation="4" flood-opacity="0.25" />
    </filter>
  </defs>

  <g transform="translate(5, 5) scale(0.9)">
    <!-- 1. The Thin Black Ring (Back layer) -->
    <circle cx="50" cy="50" r="38" fill="none" stroke="#000000" stroke-width="2.5" />

    <!-- 2. Premium White Invoicing Document Sheet (Middle layer) -->
    <path d="M 28 15 H 55 L 75 35 V 75 C 75 79 72 82 68 82 H 28 C 24 82 21 79 21 75 V 22 C 21 18 24 15 28 15 Z" fill="#ffffff" filter="url(#docShadow)" />

    <!-- 3. Teal Folded paper corner (pointing down-left, solid teal) -->
    <path d="M 54 15 L 75 36 H 58 C 56 36 54 34 54 32 V 15 Z" fill="url(#tealGrad)" />

    <!-- 4. Three premium thick horizontal invoice lines (Solid Teal) -->
    <rect x="32" y="36" width="32" height="5.5" rx="2.75" fill="#00bfa5" />
    <rect x="32" y="47" width="32" height="5.5" rx="2.75" fill="#00bfa5" />
    <rect x="32" y="58" width="18" height="5.5" rx="2.75" fill="#00bfa5" />

    <!-- 5. Bold Rupee ₹ Symbol in bottom left aligned with lines -->
    <path transform="translate(32, 65) scale(0.65)" d="M19.5,14 H10 V11 H13.5 C15.5,11 17,10 17,8 C17,6.5 15.5,5.5 13.5,5.5 H10 V3 H20 V0 H6 V3 H10 C12,3 13,4 13,5.5 C13,7 12,8 10,8 H6 V11 H10 V14 H6 V17 H10.5 L19.5,28 H24 L14.5,17 H19.5 V14 Z" fill="#00bfa5" />

    <!-- 6. The 3D Teal Q Tail (Front layer overlapping document and ring) -->
    <rect x="49" y="56" width="44" height="15" rx="7.5" fill="url(#tealGrad)" filter="url(#tailShadow)" transform="rotate(45, 49, 56)" />
  </g>
</svg>
